<svg width="17" height="16" viewBox="0 0 17 16" fill="none" xmlns="http://www.w3.org/2000/svg">
<path d="M13.6666 15L13.4809 15.4642C13.635 15.5259 13.8096 15.507 13.9469 15.414C14.0843 15.321 14.1666 15.1659 14.1666 15H13.6666ZM3.66663 15H3.16663C3.16663 15.1659 3.24893 15.321 3.38631 15.414C3.5237 15.507 3.69828 15.5259 3.85232 15.4642L3.66663 15ZM8.66663 13L8.85232 12.5358C8.73312 12.4881 8.60014 12.4881 8.48093 12.5358L8.66663 13ZM12.5746 1.21799L12.3476 1.66349L12.5746 1.21799ZM13.4486 2.09202L13.0031 2.31901L13.4486 2.09202ZM4.75864 1.21799L4.98564 1.66349L4.75864 1.21799ZM3.88461 2.09202L4.33012 2.31901L3.88461 2.09202ZM6.86663 1.5H10.4666V0.5H6.86663V1.5ZM13.1666 4.2V15H14.1666V4.2H13.1666ZM4.16663 15V4.2H3.16663V15H4.16663ZM13.8523 14.5358L8.85232 12.5358L8.48093 13.4642L13.4809 15.4642L13.8523 14.5358ZM8.48093 12.5358L3.48093 14.5358L3.85232 15.4642L8.85232 13.4642L8.48093 12.5358ZM10.4666 1.5C11.0349 1.5 11.4311 1.50039 11.7395 1.52559C12.0421 1.55031 12.2159 1.5964 12.3476 1.66349L12.8016 0.772484C12.5055 0.62159 12.1854 0.558684 11.8209 0.528909C11.4624 0.499611 11.0184 0.5 10.4666 0.5V1.5ZM14.1666 4.2C14.1666 3.6482 14.167 3.20428 14.1377 2.84569C14.1079 2.48126 14.045 2.16117 13.8941 1.86502L13.0031 2.31901C13.0702 2.45069 13.1163 2.62454 13.141 2.92712C13.1662 3.23554 13.1666 3.6317 13.1666 4.2H14.1666ZM12.3476 1.66349C12.6299 1.8073 12.8593 2.03677 13.0031 2.31901L13.8941 1.86502C13.6545 1.39462 13.272 1.01217 12.8016 0.772484L12.3476 1.66349ZM6.86663 0.5C6.31482 0.5 5.8709 0.499611 5.51231 0.528909C5.14789 0.558684 4.8278 0.62159 4.53165 0.772484L4.98564 1.66349C5.11732 1.5964 5.29116 1.55031 5.59375 1.52559C5.90217 1.50039 6.29832 1.5 6.86663 1.5V0.5ZM4.16663 4.2C4.16663 3.6317 4.16701 3.23554 4.19221 2.92712C4.21694 2.62454 4.26302 2.45069 4.33012 2.31901L3.43911 1.86502C3.28822 2.16117 3.22531 2.48126 3.19553 2.84569C3.16624 3.20428 3.16663 3.6482 3.16663 4.2H4.16663ZM4.53165 0.772484C4.06124 1.01217 3.67879 1.39462 3.43911 1.86502L4.33012 2.31901C4.47393 2.03677 4.7034 1.8073 4.98564 1.66349L4.53165 0.772484Z" fill="#7E7F81"/>
</svg>
